<svg width="40" height="40" viewBox="0 0 40 40" fill="none" xmlns="http://www.w3.org/2000/svg">
<path d="M20 0.5C9.24688 0.5 0.5 9.24688 0.5 20C0.5 30.7531 9.24688 39.5 20 39.5C30.7531 39.5 39.5 30.7531 39.5 20C39.5 9.24688 30.7531 0.5 20 0.5ZM32.8953 9.49062C35.2156 12.3266 36.6219 15.9359 36.6547 19.8688C36.1063 19.7516 30.5984 18.6359 25.0578 19.3344C24.9406 19.0484 24.8234 18.7625 24.7016 18.4766C24.3547 17.6656 23.9844 16.8547 23.5953 16.0625C29.75 13.5453 32.5437 9.96875 32.8953 9.49062ZM20 3.36875C24.2328 3.36875 28.1 4.95781 31.0391 7.56406C30.7391 7.99062 28.2312 11.3609 22.3109 13.5828C19.5828 8.56719 16.5594 4.45156 16.0953 3.83281C17.375 3.52344 18.6828 3.36875 20 3.36875ZM12.9172 4.95312C13.3578 5.55312 16.3344 9.68281 19.0906 14.5859C11.3 16.6531 4.4375 16.625 3.69219 16.6156C4.775 11.4453 8.25781 7.15156 12.9172 4.95312ZM3.34531 20.0234C3.34531 19.8547 3.35 19.6812 3.35469 19.5125C4.08125 19.5266 12.1531 19.6297 20.4734 17.1406C20.9516 18.0734 21.4063 19.0203 21.8234 19.9672C21.6031 20.0281 21.3828 20.0938 21.1672 20.1641C12.575 22.9484 8.00469 30.5187 7.625 31.1609C4.96719 28.2078 3.34531 24.3031 3.34531 20.0234ZM20 36.6781C16.1469 36.6781 12.5984 35.3656 9.77656 33.1625C10.0766 32.5484 13.4469 26.0375 22.8406 22.7609L22.9484 22.7234C25.2875 28.7984 26.2531 33.8937 26.5016 35.3562C24.4468 36.2345 22.2345 36.6843 20 36.6781ZM29.3047 33.8328C29.1359 32.8203 28.25 27.9453 26.0703 21.9594C31.2922 21.125 35.8766 22.4937 36.4437 22.6719C35.7031 27.3031 33.0453 31.3062 29.3047 33.8328Z" fill="white"/>
</svg>
