<svg width="38" height="38" viewBox="0 0 38 38" fill="none" xmlns="http://www.w3.org/2000/svg">
<path d="M19 9.38596C13.6797 9.38596 9.38592 13.6797 9.38592 19C9.38592 24.3203 13.6797 28.6141 19 28.6141C24.3203 28.6141 28.614 24.3203 28.614 19C28.614 13.6797 24.3203 9.38596 19 9.38596ZM19 25.2485C15.5594 25.2485 12.7515 22.4407 12.7515 19C12.7515 15.5594 15.5594 12.7516 19 12.7516C22.4406 12.7516 25.2484 15.5594 25.2484 19C25.2484 22.4407 22.4406 25.2485 19 25.2485ZM29.0078 6.75159C27.7656 6.75159 26.7625 7.75471 26.7625 8.9969C26.7625 10.2391 27.7656 11.2422 29.0078 11.2422C30.25 11.2422 31.2531 10.2438 31.2531 8.9969C31.2535 8.70194 31.1957 8.4098 31.0829 8.13722C30.9702 7.86464 30.8049 7.61697 30.5963 7.4084C30.3877 7.19983 30.1401 7.03446 29.8675 6.92175C29.5949 6.80904 29.3028 6.75122 29.0078 6.75159ZM37.7406 19C37.7406 16.4125 37.764 13.8485 37.6187 11.2657C37.4734 8.26565 36.789 5.60315 34.5953 3.4094C32.3969 1.21096 29.739 0.531277 26.739 0.385965C24.1515 0.240652 21.5875 0.26409 19.0047 0.26409C16.4172 0.26409 13.8531 0.240652 11.2703 0.385965C8.27029 0.531277 5.60779 1.21565 3.41404 3.4094C1.2156 5.60784 0.535916 8.26565 0.390603 11.2657C0.245291 13.8532 0.268728 16.4172 0.268728 19C0.268728 21.5828 0.245291 24.1516 0.390603 26.7344C0.535916 29.7344 1.22029 32.3969 3.41404 34.5907C5.61248 36.7891 8.27029 37.4688 11.2703 37.6141C13.8578 37.7594 16.4219 37.736 19.0047 37.736C21.5922 37.736 24.1562 37.7594 26.739 37.6141C29.739 37.4688 32.4015 36.7844 34.5953 34.5907C36.7937 32.3922 37.4734 29.7344 37.6187 26.7344C37.7687 24.1516 37.7406 21.5875 37.7406 19ZM33.6156 30.0532C33.2734 30.9063 32.8609 31.5438 32.2 32.2C31.539 32.861 30.9062 33.2735 30.0531 33.6157C27.5875 34.5953 21.7328 34.375 19 34.375C16.2672 34.375 10.4078 34.5953 7.94217 33.6203C7.08904 33.2782 6.45154 32.8657 5.79529 32.2047C5.13435 31.5438 4.72185 30.911 4.37967 30.0578C3.40467 27.5875 3.62498 21.7328 3.62498 19C3.62498 16.2672 3.40467 10.4078 4.37967 7.94221C4.72185 7.08909 5.13435 6.45159 5.79529 5.79534C6.45623 5.13909 7.08904 4.7219 7.94217 4.37971C10.4078 3.40471 16.2672 3.62503 19 3.62503C21.7328 3.62503 27.5922 3.40471 30.0578 4.37971C30.9109 4.7219 31.5484 5.1344 32.2047 5.79534C32.8656 6.45628 33.2781 7.08909 33.6203 7.94221C34.5953 10.4078 34.375 16.2672 34.375 19C34.375 21.7328 34.5953 27.5875 33.6156 30.0532Z" fill="white"/>
</svg>
