<svg width="51" height="48" viewBox="0 0 51 48" fill="none" xmlns="http://www.w3.org/2000/svg">
<path d="M11.4015 48V15.6145H0.637163V48H11.4015ZM6.0207 11.1901C9.7744 11.1901 12.1109 8.70331 12.1109 5.5956C12.041 2.41781 9.77454 0 6.09193 0C2.4099 0 0.0020752 2.41786 0.0020752 5.5956C0.0020752 8.70346 2.33799 11.1901 5.95043 11.1901H6.02036H6.0207ZM17.3595 48H28.1237V29.9144C28.1237 28.9464 28.1937 27.9795 28.4779 27.2876C29.2561 25.3537 31.0273 23.3508 34.0008 23.3508C37.896 23.3508 39.4542 26.3207 39.4542 30.6743V47.9998H50.2178V29.4302C50.2178 19.4827 44.9073 14.8542 37.8251 14.8542C32.0182 14.8542 29.4686 18.1 28.0521 20.3108H28.124V15.6138H17.3597C17.501 18.6527 17.3597 47.9994 17.3597 47.9994L17.3595 48Z" fill="white"/>
</svg>
