<svg width="270" height="22" viewBox="0 0 270 22" fill="none" xmlns="http://www.w3.org/2000/svg">
<path d="M11.3396 21.5001H16.4996L12.0296 13.7901C14.3396 12.6201 15.8996 10.2801 15.8996 7.70008C15.8996 3.71008 12.6896 0.500078 8.69956 0.500078H0.299561V21.5001H5.09956V14.6001H7.37956L11.3396 21.5001ZM5.09956 5.00008H8.69956C10.0196 5.00008 11.0996 6.17008 11.0996 7.70008C11.0996 9.23008 10.0196 10.4001 8.69956 10.4001H5.09956V5.00008ZM32.8337 21.9201C38.8637 21.9201 43.7537 17.1801 43.7537 11.0001C43.7537 4.82008 38.8637 0.0800781 32.8337 0.0800781C26.8037 0.0800781 21.9137 4.82008 21.9137 11.0001C21.9137 17.1801 26.8037 21.9201 32.8337 21.9201ZM32.8337 17.2401C29.4137 17.2401 26.7137 14.7501 26.7137 11.0001C26.7137 7.25008 29.4137 4.76008 32.8337 4.76008C36.2537 4.76008 38.9537 7.25008 38.9537 11.0001C38.9537 14.7501 36.2537 17.2401 32.8337 17.2401ZM62.2062 0.500078V8.54008H55.6062V0.500078H50.8062V21.5001H55.6062V13.1601H62.2062V21.5001H67.0062V0.500078H62.2062ZM88.3109 21.5001H93.5609L86.4209 0.500078H80.3009L73.1609 21.5001H78.4109L79.4609 18.2001H87.2609L88.3109 21.5001ZM80.9009 13.7001L83.3609 5.99008L85.8209 13.7001H80.9009ZM111.402 0.500078V11.9001L103.302 0.500078H99.7016V21.5001H104.502V10.1001L112.602 21.5001H116.202V0.500078H111.402ZM138.849 21.5001L131.859 10.7001L138.459 0.500078H136.629L130.959 9.29008L125.259 0.500078H123.429L130.029 10.7001L123.039 21.5001H124.899L130.959 12.1401L137.019 21.5001H138.849ZM154.396 0.500078H146.507V21.5001H154.396C160.186 21.5001 164.296 16.7901 164.296 11.0001C164.296 5.21008 160.186 0.500078 154.396 0.500078ZM154.396 20.0001H148.097V2.00008H154.396C159.346 2.00008 162.736 6.02008 162.736 11.0001C162.736 15.9801 159.346 20.0001 154.396 20.0001ZM174.244 20.0001V11.6601H183.844V10.1601H174.244V2.00008H184.594V0.500078H172.654V21.5001H184.744V20.0001H174.244ZM199.42 21.8301C203.59 21.8301 206.32 19.5501 206.32 16.0701C206.32 12.4401 203.08 11.2701 199.36 10.0401C196.36 9.05008 194.23 8.27008 194.23 5.75008C194.23 3.41008 196.06 1.70008 198.97 1.70008C201.97 1.70008 203.59 3.44008 204.37 5.33008L205.72 4.58008C204.7 2.15008 202.42 0.170078 198.97 0.170078C195.4 0.170078 192.61 2.36008 192.61 5.81008C192.61 9.47008 195.76 10.4601 199.27 11.6001C202.48 12.6201 204.7 13.5801 204.7 16.1001C204.7 18.5001 202.93 20.3001 199.42 20.3001C195.97 20.3001 193.84 18.5901 193.12 16.0701L191.74 16.8801C192.7 19.8501 195.49 21.8301 199.42 21.8301ZM214.429 0.500078V21.5001H216.019V0.500078H214.429ZM245.557 11.7201H235.027V13.2201H243.937C243.607 17.1501 240.517 20.3001 235.417 20.3001C229.777 20.3001 225.967 16.1601 225.967 11.0001C225.967 5.84008 229.777 1.70008 235.297 1.70008C238.597 1.70008 241.537 3.44008 242.917 6.08008L244.327 5.24008C242.587 2.21008 239.197 0.170078 235.297 0.170078C228.907 0.170078 224.377 5.00008 224.377 11.0001C224.377 17.0001 228.907 21.8301 235.417 21.8301C241.687 21.8301 245.557 17.6001 245.557 12.5301V11.7201ZM267.691 0.500078V18.5601L255.271 0.500078H253.891V21.5001H255.481V3.44008L267.871 21.5001H269.281V0.500078H267.691Z" fill="white"/>
</svg>
