<svg width="36" height="30" viewBox="0 0 36 30" fill="none" xmlns="http://www.w3.org/2000/svg">
<path d="M33.1266 4.11562L36 1.35469V0.75H26.0484L18.9563 18.4875L10.8891 0.75H0.454687V1.35469L3.81094 5.41406C4.13906 5.71406 4.30781 6.15469 4.26562 6.59531V22.5469C4.36875 23.1234 4.18594 23.7094 3.78281 24.1266L0 28.7344V29.3297H10.7156V28.725L6.9375 24.1312C6.73507 23.9257 6.5828 23.6763 6.49256 23.4023C6.40231 23.1283 6.37652 22.8372 6.41719 22.5516V8.75156L15.825 29.3391H16.9172L25.0078 8.75156V25.1531C25.0078 25.5844 25.0078 25.6734 24.7266 25.9594L21.8156 28.7859V29.3906H35.9344V28.7859L33.1266 26.025C32.8828 25.8375 32.7563 25.5234 32.8078 25.2188V4.92188C32.7835 4.77124 32.8003 4.61685 32.8564 4.47496C32.9125 4.33307 33.0058 4.20894 33.1266 4.11562Z" fill="white"/>
</svg>
