<svg width="40" height="40" viewBox="0 0 40 40" fill="none" xmlns="http://www.w3.org/2000/svg">
<path d="M20.0201 0.0380859C9.03009 0.0380859 0.0380859 9.03009 0.0380859 20.0201C0.0380859 31.0081 9.03009 40.0001 20.0201 40.0001C31.0081 40.0001 40.0001 31.0081 40.0001 20.0201C40.0001 9.03009 31.1081 0.0380859 20.0201 0.0380859ZM29.2101 28.9101C28.8121 29.5081 28.1121 29.7101 27.5101 29.3121C22.8121 26.4121 16.9181 25.8121 9.92409 27.4101C9.22809 27.6141 8.62809 27.1141 8.42809 26.5121C8.22609 25.8121 8.72609 25.2161 9.32809 25.0141C16.9181 23.3141 23.5141 24.0161 28.7081 27.2141C29.4081 27.5121 29.5081 28.3101 29.2101 28.9101ZM31.6101 23.4161C31.1081 24.1141 30.2101 24.4141 29.5081 23.9141C24.1141 20.6221 15.9241 19.6181 9.63009 21.6181C8.83409 21.8201 7.93009 21.4181 7.73209 20.6221C7.53009 19.8181 7.93209 18.9181 8.73009 18.7181C16.0221 16.5221 25.0161 17.6221 31.2081 21.4201C31.8081 21.7181 32.1081 22.7161 31.6101 23.4161ZM31.8081 17.8181C25.4141 14.0241 14.7241 13.6241 8.62809 15.5261C8.1645 15.6597 7.66726 15.6095 7.23969 15.386C6.81212 15.1626 6.48707 14.783 6.33209 14.3261C6.19613 13.8619 6.24488 13.3632 6.46816 12.9342C6.69143 12.5051 7.07193 12.179 7.53009 12.0241C14.6241 9.92609 26.3141 10.3241 33.7081 14.7261C34.6061 15.2241 34.9061 16.4241 34.4061 17.3221C33.9061 18.0221 32.7081 18.3181 31.8081 17.8181Z" fill="white"/>
</svg>
