<svg width="40" height="32" viewBox="0 0 40 32" fill="none" xmlns="http://www.w3.org/2000/svg">
<path d="M39.5 3.92033C38.0657 4.53908 36.5047 4.9844 34.8969 5.15783C36.5662 4.16612 37.8162 2.59939 38.4125 0.751582C36.8461 1.68341 35.1301 2.33682 33.3407 2.68283C32.5928 1.88327 31.6882 1.2463 30.6833 0.811617C29.6785 0.376934 28.5949 0.153851 27.5 0.156269C23.0704 0.156269 19.5079 3.74689 19.5079 8.15314C19.5079 8.77189 19.5829 9.39065 19.7047 9.98596C13.0719 9.63908 7.1563 6.47033 3.22349 1.61877C2.50689 2.84275 2.13136 4.23639 2.13599 5.65471C2.13599 8.42971 3.54692 10.8766 5.69849 12.3156C4.43054 12.2657 3.19228 11.9172 2.08442 11.2985V11.3969C2.08442 15.2828 4.8313 18.5031 8.49224 19.2438C7.80485 19.4223 7.09774 19.5137 6.38755 19.5156C5.86724 19.5156 5.37505 19.4641 4.87817 19.3938C5.89067 22.5625 8.83911 24.8641 12.35 24.9391C9.60317 27.0906 6.16255 28.3563 2.42661 28.3563C1.7563 28.3563 1.13755 28.3328 0.495361 28.2578C4.03911 30.5313 8.2438 31.8438 12.7719 31.8438C27.4719 31.8438 35.5157 19.6656 35.5157 9.09533C35.5157 8.74846 35.5157 8.40158 35.4922 8.05471C37.0485 6.91564 38.4125 5.50471 39.5 3.92033Z" fill="white"/>
</svg>
